<svg xmlns="http://www.w3.org/2000/svg" width="1900" height="1350" viewBox="0 0 1900 1350">
  <defs>
    <style>
      .page { fill: #ffffff; }
      .title { font: 700 30px Arial, sans-serif; fill: #111827; }
      .subtitle { font: 16px Arial, sans-serif; fill: #4b5563; }
      .entity { fill: #ffffff; stroke: #374151; stroke-width: 2.1; rx: 9; }
      .head { stroke: #374151; stroke-width: 2.1; }
      .blue { fill: #dbeafe; }
      .green { fill: #dcfce7; }
      .yellow { fill: #fef3c7; }
      .purple { fill: #ede9fe; }
      .red { fill: #fee2e2; }
      .orange { fill: #ffedd5; }
      .name { font: 700 17px Arial, sans-serif; fill: #111827; }
      .attr { font: 14px Arial, sans-serif; fill: #111827; }
      .key { font: 700 14px Arial, sans-serif; fill: #991b1b; }
      .line { stroke: #374151; stroke-width: 2; fill: none; }
      .rel { font: 13px Arial, sans-serif; fill: #374151; font-weight: 700; }
      .note { fill: #fefce8; stroke: #ca8a04; stroke-width: 1.7; rx: 10; }
      .noteText { font: 14px Arial, sans-serif; fill: #713f12; }
    </style>
  </defs>

  <rect class="page" width="1900" height="1350"/>
  <text x="950" y="42" text-anchor="middle" class="title">Финальная логическая модель данных</text>
  <text x="950" y="70" text-anchor="middle" class="subtitle">Кандидат выбирает данные из справочников, кадровик ведет оформление, система формирует Excel-отчет автоматически</text>

  <!-- User -->
  <rect x="60" y="120" width="310" height="220" class="entity"/>
  <rect x="60" y="120" width="310" height="40" class="head purple"/>
  <text x="215" y="146" text-anchor="middle" class="name">Пользователь</text>
  <text x="82" y="187" class="key">ID пользователя</text>
  <text x="82" y="214" class="attr">ФИО</text>
  <text x="82" y="241" class="attr">Логин</text>
  <text x="82" y="268" class="attr">Пароль</text>
  <text x="82" y="295" class="attr">Роль</text>
  <text x="82" y="322" class="attr">Статус учетной записи</text>

  <!-- Candidate -->
  <rect x="500" y="120" width="330" height="220" class="entity"/>
  <rect x="500" y="120" width="330" height="40" class="head blue"/>
  <text x="665" y="146" text-anchor="middle" class="name">Кандидат</text>
  <text x="522" y="187" class="key">ID кандидата</text>
  <text x="522" y="214" class="attr">ФИО</text>
  <text x="522" y="241" class="attr">Дата рождения</text>
  <text x="522" y="268" class="attr">Телефон</text>
  <text x="522" y="295" class="attr">Email</text>
  <text x="522" y="322" class="attr">ID пользователя</text>

  <!-- Education -->
  <rect x="60" y="470" width="330" height="245" class="entity"/>
  <rect x="60" y="470" width="330" height="40" class="head blue"/>
  <text x="225" y="496" text-anchor="middle" class="name">Образование</text>
  <text x="82" y="537" class="key">ID образования</text>
  <text x="82" y="564" class="attr">Уровень образования</text>
  <text x="82" y="591" class="attr">Вид образования</text>
  <text x="82" y="618" class="attr">Учебное заведение</text>
  <text x="82" y="645" class="attr">Документ</text>
  <text x="82" y="672" class="attr">ID кандидата</text>

  <!-- Application -->
  <rect x="500" y="455" width="360" height="300" class="entity"/>
  <rect x="500" y="455" width="360" height="40" class="head yellow"/>
  <text x="680" y="481" text-anchor="middle" class="name">Анкета кандидата</text>
  <text x="522" y="522" class="key">ID анкеты</text>
  <text x="522" y="549" class="attr">ID кандидата</text>
  <text x="522" y="576" class="attr">ID источника сведений</text>
  <text x="522" y="603" class="attr">ID связи должности</text>
  <text x="522" y="630" class="attr">Дата создания</text>
  <text x="522" y="657" class="attr">Дата отправки</text>
  <text x="522" y="684" class="attr">Статус анкеты</text>
  <text x="522" y="711" class="attr">Комментарий кадровика</text>
  <text x="522" y="738" class="attr">Иные сведения</text>

  <!-- Source -->
  <rect x="940" y="115" width="300" height="195" class="entity"/>
  <rect x="940" y="115" width="300" height="40" class="head green"/>
  <text x="1090" y="141" text-anchor="middle" class="name">Источник сведений</text>
  <text x="962" y="182" class="key">ID источника</text>
  <text x="962" y="209" class="attr">Наименование</text>
  <text x="962" y="236" class="attr">Активность</text>
  <text x="962" y="263" class="attr">Порядок отображения</text>

  <!-- Category -->
  <rect x="940" y="375" width="300" height="195" class="entity"/>
  <rect x="940" y="375" width="300" height="40" class="head green"/>
  <text x="1090" y="401" text-anchor="middle" class="name">Категория службы</text>
  <text x="962" y="442" class="key">ID категории</text>
  <text x="962" y="469" class="attr">Наименование</text>
  <text x="962" y="496" class="attr">Активность</text>
  <text x="962" y="523" class="attr">Порядок отображения</text>

  <!-- Service -->
  <rect x="940" y="635" width="300" height="195" class="entity"/>
  <rect x="940" y="635" width="300" height="40" class="head green"/>
  <text x="1090" y="661" text-anchor="middle" class="name">Служба</text>
  <text x="962" y="702" class="key">ID службы</text>
  <text x="962" y="729" class="attr">Наименование</text>
  <text x="962" y="756" class="attr">Активность</text>
  <text x="962" y="783" class="attr">Порядок отображения</text>

  <!-- Department -->
  <rect x="1320" y="115" width="330" height="220" class="entity"/>
  <rect x="1320" y="115" width="330" height="40" class="head green"/>
  <text x="1485" y="141" text-anchor="middle" class="name">Подразделение</text>
  <text x="1342" y="182" class="key">ID подразделения</text>
  <text x="1342" y="209" class="attr">Наименование</text>
  <text x="1342" y="236" class="attr">Тип подразделения</text>
  <text x="1342" y="263" class="attr">Родительское подразделение</text>
  <text x="1342" y="290" class="attr">Активность</text>

  <!-- Position -->
  <rect x="1320" y="405" width="330" height="220" class="entity"/>
  <rect x="1320" y="405" width="330" height="40" class="head green"/>
  <text x="1485" y="431" text-anchor="middle" class="name">Должность</text>
  <text x="1342" y="472" class="key">ID должности</text>
  <text x="1342" y="499" class="attr">Наименование</text>
  <text x="1342" y="526" class="attr">Начальствующий состав</text>
  <text x="1342" y="553" class="attr">Активность</text>
  <text x="1342" y="580" class="attr">Порядок отображения</text>

  <!-- Position link -->
  <rect x="1320" y="700" width="350" height="245" class="entity"/>
  <rect x="1320" y="700" width="350" height="40" class="head orange"/>
  <text x="1495" y="726" text-anchor="middle" class="name">Связь должности</text>
  <text x="1342" y="767" class="key">ID связи</text>
  <text x="1342" y="794" class="attr">ID категории</text>
  <text x="1342" y="821" class="attr">ID службы</text>
  <text x="1342" y="848" class="attr">ID подразделения</text>
  <text x="1342" y="875" class="attr">ID должности</text>
  <text x="1342" y="902" class="attr">Активность</text>

  <!-- Processing card -->
  <rect x="500" y="900" width="360" height="275" class="entity"/>
  <rect x="500" y="900" width="360" height="40" class="head yellow"/>
  <text x="680" y="926" text-anchor="middle" class="name">Карточка оформления</text>
  <text x="522" y="967" class="key">ID карточки</text>
  <text x="522" y="994" class="attr">ID анкеты</text>
  <text x="522" y="1021" class="attr">ID связи должности</text>
  <text x="522" y="1048" class="attr">Дата заявления</text>
  <text x="522" y="1075" class="attr">Стадия изучения</text>
  <text x="522" y="1102" class="attr">Дата принятия в работу</text>
  <text x="522" y="1129" class="attr">Иные сведения</text>

  <!-- Stages -->
  <rect x="940" y="930" width="300" height="220" class="entity"/>
  <rect x="940" y="930" width="300" height="40" class="head red"/>
  <text x="1090" y="956" text-anchor="middle" class="name">Этап изучения</text>
  <text x="962" y="997" class="key">ID этапа</text>
  <text x="962" y="1024" class="attr">ID карточки</text>
  <text x="962" y="1051" class="attr">Тип этапа</text>
  <text x="962" y="1078" class="attr">Дата направления</text>
  <text x="962" y="1105" class="attr">Дата результата</text>
  <text x="962" y="1132" class="attr">Результат</text>

  <!-- Checks -->
  <rect x="1320" y="1010" width="300" height="220" class="entity"/>
  <rect x="1320" y="1010" width="300" height="40" class="head red"/>
  <text x="1470" y="1036" text-anchor="middle" class="name">Служебная проверка</text>
  <text x="1342" y="1077" class="key">ID проверки</text>
  <text x="1342" y="1104" class="attr">ID карточки</text>
  <text x="1342" y="1131" class="attr">Тип проверки</text>
  <text x="1342" y="1158" class="attr">Дата направления</text>
  <text x="1342" y="1185" class="attr">Дата результата</text>
  <text x="1342" y="1212" class="attr">Результат</text>

  <!-- Decision -->
  <rect x="60" y="900" width="330" height="220" class="entity"/>
  <rect x="60" y="900" width="330" height="40" class="head yellow"/>
  <text x="225" y="926" text-anchor="middle" class="name">Итоговое решение</text>
  <text x="82" y="967" class="key">ID решения</text>
  <text x="82" y="994" class="attr">ID карточки</text>
  <text x="82" y="1021" class="attr">Тип решения</text>
  <text x="82" y="1048" class="attr">Дата решения</text>
  <text x="82" y="1075" class="attr">Причина отказа</text>
  <text x="82" y="1102" class="attr">Реквизиты приказа</text>

  <!-- Report template -->
  <rect x="60" y="1210" width="390" height="120" class="entity"/>
  <rect x="60" y="1210" width="390" height="40" class="head purple"/>
  <text x="255" y="1236" text-anchor="middle" class="name">Шаблон отчета</text>
  <text x="82" y="1277" class="key">ID шаблона</text>
  <text x="200" y="1277" class="attr">Название, правила отбора, колонки Excel</text>

  <!-- Report export -->
  <rect x="540" y="1210" width="450" height="120" class="entity"/>
  <rect x="540" y="1210" width="450" height="40" class="head purple"/>
  <text x="765" y="1236" text-anchor="middle" class="name">Выгрузка отчета</text>
  <text x="562" y="1277" class="key">ID выгрузки</text>
  <text x="682" y="1277" class="attr">ID шаблона, ID пользователя, период, файл</text>

  <!-- Relations -->
  <line x1="370" y1="230" x2="500" y2="230" class="line"/>
  <text x="405" y="215" class="rel">1</text><text x="468" y="215" class="rel">0..1</text>

  <line x1="665" y1="340" x2="680" y2="455" class="line"/>
  <text x="685" y="380" class="rel">1</text><text x="690" y="435" class="rel">0..N</text>

  <line x1="500" y1="610" x2="390" y2="610" class="line"/>
  <text x="470" y="595" class="rel">1</text><text x="410" y="595" class="rel">0..N</text>

  <line x1="860" y1="580" x2="940" y2="215" class="line"/>
  <text x="875" y="560" class="rel">N</text><text x="918" y="230" class="rel">1</text>

  <line x1="860" y1="610" x2="1320" y2="820" class="line"/>
  <text x="875" y="635" class="rel">N</text><text x="1290" y="805" class="rel">1</text>

  <line x1="1240" y1="470" x2="1320" y2="790" class="line"/>
  <text x="1255" y="492" class="rel">1</text><text x="1300" y="770" class="rel">0..N</text>

  <line x1="1240" y1="735" x2="1320" y2="820" class="line"/>
  <text x="1250" y="755" class="rel">1</text><text x="1300" y="805" class="rel">0..N</text>

  <line x1="1485" y1="335" x2="1495" y2="700" class="line"/>
  <text x="1505" y="365" class="rel">1</text><text x="1505" y="685" class="rel">0..N</text>

  <line x1="1485" y1="625" x2="1495" y2="700" class="line"/>
  <text x="1505" y="645" class="rel">1</text><text x="1505" y="685" class="rel">0..N</text>

  <line x1="680" y1="755" x2="680" y2="900" class="line"/>
  <text x="695" y="800" class="rel">1</text><text x="695" y="880" class="rel">0..1</text>

  <line x1="860" y1="1030" x2="940" y2="1035" class="line"/>
  <text x="880" y="1018" class="rel">1</text><text x="910" y="1018" class="rel">0..N</text>

  <line x1="860" y1="1080" x2="1320" y2="1120" class="line"/>
  <text x="880" y="1070" class="rel">1</text><text x="1290" y="1105" class="rel">0..N</text>

  <line x1="500" y1="1030" x2="390" y2="1030" class="line"/>
  <text x="470" y="1015" class="rel">1</text><text x="410" y="1015" class="rel">0..1</text>

  <line x1="450" y1="1265" x2="540" y2="1265" class="line"/>
  <text x="470" y="1250" class="rel">1</text><text x="510" y="1250" class="rel">0..N</text>

  <line x1="215" y1="340" x2="765" y2="1210" class="line"/>
  <text x="245" y="365" class="rel">1</text><text x="735" y="1195" class="rel">0..N</text>

  <!-- Note -->
  <rect x="1260" y="1245" width="560" height="78" class="note"/>
  <text x="1540" y="1274" text-anchor="middle" class="noteText">Связь должности обеспечивает фильтрацию выпадающих списков.</text>
  <text x="1540" y="1298" text-anchor="middle" class="noteText">В анкете хранится ссылка на готовую связку: категория + служба + подразделение + должность.</text>
</svg>
